<?xml version="1.0" standalone="no"?>
<!DOCTYPE svg PUBLIC "-//W3C//DTD SVG 20010904//EN"
 "http://www.w3.org/TR/2001/REC-SVG-20010904/DTD/svg10.dtd">
<svg version="1.0" xmlns="http://www.w3.org/2000/svg"
 width="500.000000pt" height="500.000000pt" viewBox="0 0 500.000000 500.000000"
 preserveAspectRatio="xMidYMid meet">

<g transform="translate(0.000000,500.000000) scale(0.100000,-0.100000)"
fill="#000000" stroke="none">
<path d="M2747 4815 c-49 -17 -64 -30 -89 -79 -16 -31 -19 -52 -15 -93 5 -51
11 -66 70 -181 22 -41 25 -57 17 -72 -12 -23 -36 -26 -47 -6 -4 8 -26 34 -49
58 -55 59 -56 61 -38 97 23 46 29 106 14 141 -15 37 -78 88 -129 106 -78 26
-162 -22 -177 -101 -5 -27 0 -48 20 -89 15 -31 26 -70 26 -95 0 -55 11 -74 78
-143 67 -69 63 -84 -19 -68 -109 23 -149 40 -156 68 -3 14 0 39 7 56 43 105
51 138 40 171 -16 47 -65 112 -103 135 -35 22 -108 27 -151 10 -33 -12 -66
-66 -66 -105 1 -40 34 -111 59 -124 19 -10 19 -13 5 -46 -7 -19 -14 -61 -14
-95 0 -58 2 -62 51 -116 31 -34 48 -62 45 -71 -3 -8 -6 -17 -6 -19 0 -13 -46
-1 -73 20 -132 99 -327 78 -394 -42 -31 -55 -37 -105 -23 -183 l13 -68 -33
-65 c-35 -67 -48 -80 -69 -67 -9 6 -7 21 10 62 31 77 29 166 -6 252 -15 38
-24 75 -20 86 3 11 29 33 58 49 29 17 65 44 81 61 28 29 35 31 96 31 85 0 145
29 177 86 48 85 39 173 -25 242 -36 38 -43 42 -88 42 -61 -1 -140 -32 -223
-90 -35 -25 -82 -55 -105 -66 -106 -55 -180 -157 -193 -264 -3 -30 -19 -78
-35 -108 -35 -68 -39 -157 -8 -217 11 -22 18 -45 15 -52 -5 -14 -43 -17 -61
-5 -25 16 -47 81 -52 147 -6 84 -15 105 -47 105 -33 0 -80 -66 -134 -187 -95
-213 -105 -369 -31 -473 11 -15 20 -41 20 -57 0 -40 44 -124 85 -164 19 -19
47 -58 62 -87 33 -66 116 -145 185 -177 47 -22 66 -25 173 -25 98 0 128 4 164
20 53 25 51 25 51 -2 0 -49 68 -122 163 -176 83 -48 225 -66 293 -37 28 12 50
12 117 4 45 -6 98 -8 117 -4 58 10 150 47 231 92 42 24 81 43 86 43 5 0 54 18
109 40 229 94 432 148 659 175 148 18 437 77 493 101 44 18 124 99 151 153 27
52 46 205 37 301 -3 36 -17 99 -31 139 -35 105 -133 294 -193 376 -66 89 -302
315 -395 378 -67 46 -75 49 -119 43 -40 -4 -48 -2 -48 11 0 24 -47 81 -82 99
-63 32 -174 66 -248 74 -41 4 -100 17 -130 28 -80 28 -110 32 -153 17z m280
-271 c25 -39 29 -122 7 -169 -24 -48 -47 -64 -71 -49 -15 10 -17 23 -15 82 3
48 -1 78 -11 99 -21 39 -7 63 38 63 26 0 39 -6 52 -26z m196 -166 c15 -12 13
-19 -24 -80 -63 -103 -66 -177 -9 -242 50 -56 18 -89 -60 -61 -54 19 -188 20
-260 1 -100 -26 -234 -97 -357 -189 -41 -30 -81 -47 -185 -77 -160 -46 -255
-87 -291 -126 -51 -55 -143 -169 -189 -234 -25 -36 -57 -75 -70 -87 -34 -32
-101 -53 -168 -53 -31 0 -71 -5 -88 -11 -25 -9 -36 -8 -54 5 -12 9 -35 16 -51
16 -21 0 -44 14 -84 53 -59 57 -62 77 -14 77 42 0 79 35 92 85 6 25 17 49 24
55 18 15 44 2 49 -24 16 -86 22 -101 46 -113 60 -30 168 -5 220 51 13 15 52
40 87 57 104 50 157 131 157 244 0 85 -19 125 -105 226 -65 75 -68 97 -11 84
32 -7 95 -70 145 -144 53 -80 159 -103 254 -56 57 29 89 78 79 124 -3 14 -8
40 -12 57 -7 35 9 74 31 74 8 0 32 -18 53 -39 47 -47 93 -59 171 -43 68 14
112 48 136 104 10 23 19 44 20 45 0 1 19 -4 40 -12 121 -43 212 10 342 198 33
48 56 57 86 35z m373 -199 c31 -29 95 -36 139 -14 46 21 62 15 83 -32 13 -29
17 -67 17 -159 l0 -121 49 -73 c40 -61 49 -83 54 -132 l5 -59 -61 -62 c-34
-34 -75 -79 -92 -99 -47 -56 -122 -81 -235 -77 -82 3 -95 0 -150 -27 -45 -21
-74 -29 -117 -29 -44 0 -62 -5 -80 -21 -39 -36 -86 -55 -143 -57 -43 -2 -60
-8 -82 -29 -50 -46 -112 -71 -193 -76 -61 -3 -80 -9 -100 -28 -32 -29 -108
-62 -151 -64 -61 -4 -89 0 -89 11 0 18 64 89 81 89 38 0 79 24 98 56 l20 34
91 0 c100 0 141 12 179 54 20 21 33 26 73 26 66 0 123 25 148 65 25 40 43 47
125 49 49 1 70 7 104 29 46 31 83 35 188 22 33 -4 73 -5 86 -1 36 9 87 54 87
77 0 12 14 26 39 39 55 27 101 86 101 128 0 33 -31 105 -49 117 -19 11 -53
-35 -47 -61 9 -35 -16 -76 -62 -102 -41 -23 -77 -28 -100 -14 -17 11 -6 37 21
49 35 16 126 103 144 136 11 23 14 47 10 93 -15 157 -111 232 -193 150 -38
-38 -42 -64 -20 -118 15 -35 15 -35 -25 -74 -22 -21 -43 -52 -47 -69 -7 -24
-16 -32 -53 -42 -25 -7 -64 -29 -86 -48 -34 -29 -49 -35 -88 -35 -61 0 -113
-25 -137 -67 -19 -32 -22 -33 -87 -33 -78 0 -124 -13 -164 -47 -23 -18 -40
-23 -88 -23 -74 0 -139 -29 -181 -81 -30 -37 -32 -37 -117 -44 -186 -14 -328
-127 -335 -268 -5 -84 -47 -147 -98 -147 -45 0 -57 38 -28 87 26 44 29 116 6
180 -11 32 -12 45 -2 64 10 21 20 25 86 30 110 8 202 61 263 152 22 33 45 34
81 6 23 -18 37 -21 86 -17 83 6 123 39 175 146 22 45 48 84 58 87 28 10 54 -4
76 -40 17 -29 26 -35 56 -35 47 0 125 49 159 100 32 48 66 53 102 15 20 -21
26 -23 52 -14 16 5 42 23 57 39 19 20 39 30 58 30 89 0 162 100 159 219 -1 36
-7 80 -13 98 -22 68 45 111 97 62z"/>
<path d="M3700 3019 c-398 -39 -543 -70 -795 -166 -247 -95 -257 -110 -137
-192 31 -21 74 -62 96 -90 21 -28 44 -55 50 -59 7 -4 39 -38 71 -77 32 -38 69
-81 82 -94 30 -31 26 -50 -16 -75 -61 -36 -176 -55 -391 -66 -226 -12 -383
-33 -417 -56 -65 -42 12 -98 182 -133 71 -14 301 -29 640 -41 381 -14 535 -30
498 -53 -19 -12 -212 -46 -313 -56 -58 -6 -301 -12 -540 -15 -426 -5 -710 -24
-851 -55 -134 -30 -254 -105 -285 -178 -29 -67 -11 -143 43 -181 47 -33 375
-151 655 -236 48 -14 131 -48 185 -76 101 -50 137 -85 171 -163 34 -80 -11
-160 -125 -219 -130 -69 -296 -105 -1028 -227 -584 -98 -1183 -217 -1207 -240
-3 -3 -8 -14 -10 -25 -3 -18 22 -19 1006 -17 l1010 2 198 40 c110 21 290 65
401 96 199 56 205 57 350 61 154 3 177 -2 177 -38 0 -13 -28 -25 -127 -54 -71
-21 -175 -53 -233 -72 l-105 -34 888 4 888 4 28 26 c39 38 99 161 112 231 15
82 6 201 -20 261 -42 94 -181 250 -268 300 -26 15 -50 31 -53 35 -15 19 -252
119 -385 162 -266 86 -558 158 -840 207 -227 39 -334 64 -385 90 -75 39 -64
43 170 68 128 13 165 20 165 31 0 8 -13 19 -30 24 -32 9 -862 1 -914 -9 -27
-6 -31 -4 -31 15 0 13 6 21 18 21 9 1 51 5 92 11 41 5 377 12 745 15 694 5
767 9 846 50 40 20 79 72 79 104 0 37 -55 94 -115 120 -60 26 -214 66 -324 85
-84 14 -365 44 -431 45 -19 1 -12 8 35 32 33 16 77 46 98 66 32 31 37 42 37
82 0 27 -8 59 -20 80 -46 79 -90 176 -90 197 0 26 0 26 90 28 70 2 347 78 420
115 69 35 153 122 179 186 22 52 23 60 10 83 -13 24 -21 26 -79 27 -36 1 -103
-2 -150 -7z m-1455 -1345 c0 -14 -7 -19 -29 -19 -37 0 -46 22 -14 34 31 13 43
8 43 -15z m-77 -16 c-2 -18 -11 -24 -35 -26 -27 -3 -33 0 -33 17 0 21 12 29
48 30 19 1 23 -4 20 -21z m-85 -62 c-3 -39 -18 -53 -38 -36 -18 15 -20 41 -3
58 21 21 43 9 41 -22z m107 -70 c33 -10 46 -19 48 -35 4 -25 -8 -26 -76 -10
-55 14 -67 22 -59 43 8 19 28 20 87 2z m198 -57 c55 -17 72 -26 72 -40 0 -29
-12 -30 -91 -8 -77 22 -106 39 -95 58 10 16 32 14 114 -10z m227 -71 c101 -21
133 -37 121 -57 -10 -16 -38 -13 -146 12 -82 19 -95 25 -98 45 -4 27 -1 27
123 0z m315 -70 c84 -22 96 -29 86 -54 -8 -20 -57 -16 -147 10 -76 22 -98 39
-80 60 14 17 15 17 141 -16z m305 -92 c208 -64 220 -69 223 -93 3 -18 -3 -22
-38 -28 -23 -4 -46 -3 -53 3 -19 15 -198 89 -234 97 -31 6 -44 30 -26 48 9 10
7 10 128 -27z m475 -203 c41 -18 110 -55 152 -80 110 -66 116 -101 19 -111
-50 -4 -51 -4 -114 54 -34 33 -95 76 -134 97 -77 40 -88 50 -79 72 8 21 67 9
156 -32z m174 -323 c14 -14 -13 -67 -54 -104 -74 -67 -83 -70 -188 -67 -161 4
-171 29 -42 98 47 25 99 56 115 69 27 22 36 24 95 18 36 -3 69 -10 74 -14z"/>
</g>
</svg>
